<?xml version="1.0" encoding="iso-8859-1"?>
<!-- Generator: Adobe Illustrator 16.0.0, SVG Export Plug-In . SVG Version: 6.00 Build 0)  -->
<!DOCTYPE svg PUBLIC "-//W3C//DTD SVG 1.1//EN" "http://www.w3.org/Graphics/SVG/1.1/DTD/svg11.dtd">
<svg version="1.1" id="Capa_1" xmlns="http://www.w3.org/2000/svg" xmlns:xlink="http://www.w3.org/1999/xlink" x="0px" y="0px"
	  viewBox="0 0 388.017 388.018" style="enable-background:new 0 0 388.017 388.018;"
	 xml:space="preserve">
<g>
	<path d="M385.41,211.102c0.612-22.645,4.284-69.156-23.256-79.561c-19.584-7.344-39.78-3.672-59.977-1.224
		c-6.731,0.612-14.075,1.224-20.808,1.836c0.612-27.54,1.836-55.08,3.672-82.62c0.612-8.568,1.225-22.644-6.731-28.764
		c-21.42-17.748-66.708-10.404-93.025-12.24c-25.704-1.224-67.32-7.344-85.068,15.912c-18.36,23.868-4.896,74.052-0.612,103.428
		c-9.18-0.612-18.972-0.612-28.152-0.612c-35.496,0-55.692,18.36-63.648,52.02c-7.956,36.72-12.852,83.844,0.612,119.952
		c13.464,37.332,64.872,30.6,95.472,27.54l0,0c1.224,15.3,3.06,30.6,2.448,45.899c0,4.284,3.672,7.956,7.956,7.956
		c53.244-3.06,106.488,4.284,159.12-2.448c4.284-0.611,7.344-3.06,7.344-7.344c0.612-15.912,1.836-31.212,1.836-47.124
		c29.377,1.836,69.156,14.688,92.412-8.567C396.425,292.497,384.797,239.253,385.41,211.102z M51.257,193.965
		c0-0.612,0.612-1.835,0.612-2.448c3.672,0.612,6.732,1.224,10.404,1.224C58.601,193.353,54.929,193.965,51.257,193.965z
		 M109.397,55.653c1.224-20.196,6.732-28.152,26.316-30.6c16.524-1.836,33.048-0.612,49.572,0
		c24.481,1.224,52.021-0.612,75.888,4.284c15.301,3.06,5.509,80.172,3.673,103.428c-15.912,0.612-31.824,0-47.736,0
		c-35.497,0-70.38-3.06-105.876-4.284C112.457,104.001,108.173,80.133,109.397,55.653z M280.757,289.438
		c-2.447,0-4.283,0.611-5.508,2.447c-4.896-0.611-11.016,3.061-9.792,9.792c3.061,20.809,0.612,41.616,0,62.425
		c-47.735,4.896-96.084-1.225-143.82,0.611c0-23.256-4.896-46.512-6.12-69.155c0-1.837-1.224-3.061-1.836-3.673
		c-0.612-1.224-1.836-2.447-3.672-2.447c-11.016-0.612-15.3-4.896-12.852-14.076c0-10.404,23.256-4.896,28.152-4.284
		c18.972,0.612,37.332-0.612,56.304-2.448c38.556-3.06,77.113-6.731,115.668-3.06C299.118,277.81,301.566,291.273,280.757,289.438z
		 M296.669,233.133c0.612-0.611,0.612-1.224,0.612-1.836c3.672,0.612,6.732,1.225,10.404,1.836
		C304.014,232.521,300.341,232.521,296.669,233.133z M343.793,312.081c1.225-0.612,3.061-1.836,4.284-2.448
		c1.224-0.611,1.836-1.224,2.448-2.447c1.224,1.224,3.06,1.224,4.284,1.224C351.138,310.245,347.465,311.469,343.793,312.081z
		 M368.274,289.438c-1.225,6.731-3.672,11.016-7.344,14.688c0-0.611,0.611-0.611,0.611-1.224c0.612-2.448,1.836-4.896,2.448-6.732
		c0.612-0.611,0.612-0.611,1.224-1.224c1.225-2.448,2.448-4.896,3.673-7.956C368.274,287.602,368.274,288.213,368.274,289.438z"/>
</g>
</svg>
